<?xml version="1.0" encoding="UTF-8"?>
<svg width="665px" height="229px" viewBox="0 0 665 229" version="1.1" xmlns="http://www.w3.org/2000/svg" xmlns:xlink="http://www.w3.org/1999/xlink">
    <!-- Generator: Sketch 49.3 (51167) - http://www.bohemiancoding.com/sketch -->
    <title>Group 7</title>
    <desc>Created with Sketch.</desc>
    <defs>
        <rect id="path-1" x="0" y="0" width="665" height="229"></rect>
    </defs>
    <g id="visual-2" stroke="none" stroke-width="1" fill="none" fill-rule="evenodd">
        <g id="Group-7">
            <mask id="mask-2" fill="white">
                <use xlink:href="#path-1"></use>
            </mask>
            <g id="Mask"></g>
            <g mask="url(#mask-2)">
                <rect id="Rectangle-5" stroke="#5A4753" stroke-width="12" x="6" y="6" width="653" height="217" rx="108.5"></rect>
                <circle id="Oval" fill="#E89E84" cx="179" cy="50" r="50"></circle>
                <path d="M163.685547,63.6328125 L145,63.6328125 L152.417969,53.7363281 C153.261723,52.6113225 153.9707,51.6064497 154.544922,50.7216797 C155.119143,49.8369096 155.570311,49.0546909 155.898438,48.375 C156.542972,47.0976499 156.865234,45.785163 156.865234,44.4375 C156.865234,43.6992151 156.712892,43.1132834 156.408203,42.6796875 C156.103514,42.2460916 155.687503,42.0292969 155.160156,42.0292969 C153.988275,42.0292969 153.402344,43.1308484 153.402344,45.3339844 C153.402344,45.4511725 153.405273,45.5917961 153.411133,45.7558594 C153.416992,45.9199227 153.425781,46.1132801 153.4375,46.3359375 L146.318359,46.3359375 L146.283203,45.3515625 C146.283203,42.6210801 147.126945,40.3828212 148.814453,38.6367188 C150.51368,36.8788975 152.687487,36 155.335938,36 C157.890638,36 159.976554,36.8320229 161.59375,38.4960938 C163.222664,40.1250081 164.037109,42.25194 164.037109,44.8769531 C164.037109,46.9863387 163.480474,49.0370994 162.367188,51.0292969 C161.804685,52.0253956 161.0752,53.0712836 160.178711,54.1669922 C159.282222,55.2627008 158.195319,56.4140565 156.917969,57.6210938 C158.019537,57.5390621 159.129877,57.4804689 160.249023,57.4453125 C161.36817,57.4101561 162.513666,57.3925781 163.685547,57.3925781 L163.685547,63.6328125 Z M184.629962,49.5 C187.430757,50.7187561 188.831134,52.8515473 188.831134,55.8984375 C188.831134,58.2656368 187.952236,60.2285078 186.194415,61.7871094 C184.436594,63.3339921 182.227632,64.1074219 179.567462,64.1074219 C176.989324,64.1074219 174.803799,63.3164142 173.010821,61.734375 C171.217844,60.140617 170.321368,58.2011833 170.321368,55.9160156 C170.321368,52.8691254 171.862368,50.7304749 174.944415,49.5 C172.225651,48.5742141 170.86629,46.6816549 170.86629,43.8222656 C170.86629,41.5605356 171.674876,39.6914136 173.292071,38.2148438 C174.920986,36.7382739 176.977606,36 179.461993,36 C182.016693,36 184.126047,36.7265552 185.790118,38.1796875 C187.489345,39.6328198 188.338946,41.4433485 188.338946,43.6113281 C188.338946,45.0175852 188.045981,46.1894484 187.46004,47.1269531 C186.8741,48.0644578 185.93075,48.8554655 184.629962,49.5 Z M181.360431,55.1074219 C181.360431,53.2792877 180.76278,52.3652344 179.567462,52.3652344 C179.309648,52.3652344 179.072346,52.4355462 178.855548,52.5761719 C178.63875,52.7167976 178.451252,52.910155 178.293048,53.15625 C178.134844,53.402345 178.011798,53.6982405 177.923907,54.0439453 C177.836016,54.3896502 177.792071,54.7675761 177.792071,55.1777344 C177.792071,55.9863322 177.959062,56.6337866 178.293048,57.1201172 C178.627034,57.6064477 179.063553,57.8496094 179.602618,57.8496094 C179.860432,57.8496094 180.097734,57.7822272 180.314532,57.6474609 C180.53133,57.5126946 180.715899,57.3251965 180.868243,57.0849609 C181.020588,56.8447254 181.140704,56.5576189 181.228595,56.2236328 C181.316486,55.8896468 181.360431,55.5175802 181.360431,55.1074219 Z M181.131915,44.2089844 C181.131915,43.4941371 180.991291,42.919924 180.71004,42.4863281 C180.428789,42.0527322 180.053792,41.8359375 179.58504,41.8359375 C179.128007,41.8359375 178.764729,42.0410136 178.495196,42.4511719 C178.225664,42.8613302 178.090899,43.4062466 178.090899,44.0859375 C178.090899,45.7382895 178.60066,46.5644531 179.620196,46.5644531 C180.628014,46.5644531 181.131915,45.7793047 181.131915,44.2089844 Z M209.529455,49.5 C212.33025,50.7187561 213.730627,52.8515473 213.730627,55.8984375 C213.730627,58.2656368 212.85173,60.2285078 211.093908,61.7871094 C209.336087,63.3339921 207.127125,64.1074219 204.466955,64.1074219 C201.888817,64.1074219 199.703292,63.3164142 197.910315,61.734375 C196.117337,60.140617 195.220861,58.2011833 195.220861,55.9160156 C195.220861,52.8691254 196.761862,50.7304749 199.843908,49.5 C197.125145,48.5742141 195.765783,46.6816549 195.765783,43.8222656 C195.765783,41.5605356 196.574369,39.6914136 198.191565,38.2148438 C199.820479,36.7382739 201.877099,36 204.361486,36 C206.916187,36 209.025541,36.7265552 210.689611,38.1796875 C212.388839,39.6328198 213.23844,41.4433485 213.23844,43.6113281 C213.23844,45.0175852 212.945474,46.1894484 212.359533,47.1269531 C211.773593,48.0644578 210.830243,48.8554655 209.529455,49.5 Z M206.259924,55.1074219 C206.259924,53.2792877 205.662274,52.3652344 204.466955,52.3652344 C204.209141,52.3652344 203.971839,52.4355462 203.755041,52.5761719 C203.538243,52.7167976 203.350745,52.910155 203.192541,53.15625 C203.034337,53.402345 202.911292,53.6982405 202.8234,54.0439453 C202.735509,54.3896502 202.691565,54.7675761 202.691565,55.1777344 C202.691565,55.9863322 202.858555,56.6337866 203.192541,57.1201172 C203.526527,57.6064477 203.963046,57.8496094 204.502111,57.8496094 C204.759925,57.8496094 204.997228,57.7822272 205.214025,57.6474609 C205.430823,57.5126946 205.615392,57.3251965 205.767736,57.0849609 C205.920081,56.8447254 206.040197,56.5576189 206.128088,56.2236328 C206.215979,55.8896468 206.259924,55.5175802 206.259924,55.1074219 Z M206.031408,44.2089844 C206.031408,43.4941371 205.890785,42.919924 205.609533,42.4863281 C205.328282,42.0527322 204.953286,41.8359375 204.484533,41.8359375 C204.0275,41.8359375 203.664222,42.0410136 203.39469,42.4511719 C203.125157,42.8613302 202.990393,43.4062466 202.990393,44.0859375 C202.990393,45.7382895 203.500153,46.5644531 204.51969,46.5644531 C205.527507,46.5644531 206.031408,45.7793047 206.031408,44.2089844 Z" id="288" fill="#FFFFFF"></path>
                <path d="M270.957031,50.0351562 L270.957031,54 C269.720046,53.1145789 268.606776,52.671875 267.617188,52.671875 C266.549474,52.671875 265.677087,53.0494754 265,53.8046875 C264.322913,54.5208369 263.984375,55.4778586 263.984375,56.6757812 C263.984375,57.730474 264.225258,58.6354129 264.707031,59.390625 C264.954428,59.7942729 265.361325,60.315101 265.927734,60.953125 C266.494143,61.591149 267.226558,62.3593705 268.125,63.2578125 C269.778654,64.9375084 270.904945,66.3893168 271.503906,67.6132812 C272.102868,68.798183 272.402344,70.2499914 272.402344,71.96875 C272.402344,74.2994908 271.744798,76.2200445 270.429688,77.7304688 C269.114577,79.2018303 267.428396,79.9375 265.371094,79.9375 C263.639314,79.9375 262.161464,79.4622443 260.9375,78.5117188 L260.9375,74.4882812 C262.38282,75.542974 263.697911,76.0703125 264.882812,76.0703125 C265.989589,76.0703125 266.855466,75.7024776 267.480469,74.9667969 C268.105472,74.2311161 268.417969,73.2317771 268.417969,71.96875 C268.417969,70.8749945 268.177086,69.8919314 267.695312,69.0195312 C267.447915,68.6028625 267.102867,68.1243517 266.660156,67.5839844 C266.217446,67.0436171 265.664066,66.4414096 265,65.7773438 C263.971349,64.7617137 263.118493,63.8632852 262.441406,63.0820312 C261.76432,62.3007773 261.263022,61.6171904 260.9375,61.03125 C260.312497,59.8854109 260,58.4401129 260,56.6953125 C260,54.3385299 260.611973,52.470059 261.835938,51.0898438 C263.072923,49.6966076 264.733063,49 266.816406,49 C268.261726,49 269.641921,49.3450486 270.957031,50.0351562 Z M287.233073,49.4101562 L290.397135,49.4101562 L296.861979,79.5664062 L292.838542,79.5664062 L291.705729,73.6875 L285.729167,73.6875 L284.576823,79.5664062 L280.670573,79.5664062 L287.233073,49.4101562 Z M291.119792,70.5429688 L290.221354,65.7382812 C289.622393,62.4700357 289.134116,58.9804873 288.75651,55.2695312 C288.574218,57.0794361 288.339845,58.9121001 288.053385,60.7675781 C287.766925,62.6230562 287.428387,64.5924375 287.03776,66.6757812 L286.295573,70.5429688 L291.119792,70.5429688 Z M302.825521,49.4101562 L306.829427,49.4101562 L308.645833,60.5429688 L308.958333,62.5546875 L309.602864,66.9296875 C309.707031,67.6718787 309.801432,68.3489553 309.886067,68.9609375 C309.970703,69.5729197 310.045572,70.1262996 310.110677,70.6210938 L310.305989,72.1054688 C310.345052,71.8059881 310.377604,71.5390637 310.403646,71.3046875 C310.429687,71.0703113 310.455729,70.8750008 310.481771,70.71875 L311.009114,67.2226562 L311.692708,62.6328125 C311.757813,62.2161438 311.819661,61.832033 311.878255,61.4804688 C311.936849,61.1289045 311.992187,60.8164076 312.044271,60.5429688 L313.997396,49.4101562 L317.786458,49.4101562 L311.868489,79.5664062 L308.645833,79.5664062 L302.825521,49.4101562 Z M326.679687,49.4101562 L337.480468,49.4101562 L337.480468,52.8476562 L330.742187,52.8476562 L330.742187,62.3984375 L336.71875,62.3984375 L336.71875,65.8359375 L330.742187,65.8359375 L330.742187,76.1289062 L337.480468,76.1289062 L337.480468,79.5664062 L326.679687,79.5664062 L326.679687,49.4101562 Z M377.923176,65.2304688 C377.923176,70.5560162 377.330734,74.3385305 376.145833,76.578125 C374.960931,78.8177195 372.975274,79.9375 370.188801,79.9375 C367.259099,79.9375 365.195318,78.733085 363.997395,76.3242188 C362.812493,73.9674361 362.220051,69.7812801 362.220051,63.765625 C362.220051,58.4010148 362.805983,54.6054799 363.977864,52.3789062 C365.162766,50.1393117 367.167954,49.0195312 369.993489,49.0195312 C372.519543,49.0195312 374.394524,49.885408 375.618489,51.6171875 C376.425784,52.7760475 377.011716,54.4231664 377.376301,56.5585938 C377.740886,58.5377703 377.923176,61.4283664 377.923176,65.2304688 Z M373.665364,65.6601562 C373.665364,60.438776 373.430991,56.9752689 372.962239,55.2695312 C372.493486,53.5507727 371.536465,52.6914062 370.091145,52.6914062 C368.645825,52.6914062 367.682293,53.4791588 367.20052,55.0546875 C366.731768,56.6432371 366.497395,59.8333094 366.497395,64.625 C366.497395,69.0390846 366.744788,72.0989498 367.239583,73.8046875 C367.747398,75.4192789 368.697909,76.2265625 370.091145,76.2265625 C371.458339,76.2265625 372.39583,75.4713617 372.903645,73.9609375 C373.41146,72.4635342 373.665364,69.6966348 373.665364,65.6601562 Z M388.61328,49.4101562 L392.402343,49.4101562 L396.445312,61.4414062 C397.617192,64.8398607 398.652338,68.4661266 399.55078,72.3203125 C399.225258,69.9895717 398.984375,67.8802178 398.828124,65.9921875 C398.671873,64.1041572 398.593749,62.3268312 398.593749,60.6601562 L398.593749,49.4101562 L402.67578,49.4101562 L402.67578,79.5664062 L398.867187,79.5664062 L394.316405,65.9921875 C393.899737,64.7291604 393.50586,63.4336004 393.134765,62.1054688 C392.763669,60.7773371 392.421876,59.3841219 392.109374,57.9257812 C392.083332,57.7434887 392.041015,57.5221367 391.982421,57.2617188 C391.923827,57.0013008 391.855468,56.7018246 391.777343,56.3632812 C391.816405,56.7018246 391.848957,56.9915353 391.874999,57.2324219 C391.901041,57.4733085 391.920572,57.6783846 391.933593,57.8476562 L392.148437,60.9140625 L392.36328,64.6445312 C392.376301,64.8528656 392.386067,65.1067693 392.392577,65.40625 C392.399088,65.7057307 392.402343,66.0442689 392.402343,66.421875 L392.617187,79.5664062 L388.61328,79.5664062 L388.61328,49.4101562 Z M264.384766,104.175781 L277.763672,104.175781 C283.297554,104.175781 287.415351,105.494127 290.117188,108.130859 C293.535173,111.548845 295.244141,116.773402 295.244141,123.804688 C295.244141,129.20836 294.340829,133.545882 292.53418,136.817383 C290.72753,140.088884 288.147803,142.11523 284.794922,142.896484 L298.662109,179.566406 L288.359375,179.566406 L274.541016,142.652344 L274.541016,179.566406 L264.384766,179.566406 L264.384766,104.175781 Z M274.541016,137.574219 C278.479837,137.574219 281.263013,136.66277 282.890625,134.839844 C284.518237,133.016918 285.332031,129.940777 285.332031,125.611328 C285.332031,123.267566 285.161135,121.265633 284.819336,119.605469 C284.477537,117.945304 283.940433,116.594406 283.208008,115.552734 C282.475582,114.511063 281.531581,113.746096 280.375977,113.257812 C279.220372,112.769529 277.84506,112.525391 276.25,112.525391 L274.541016,112.525391 L274.541016,137.574219 Z M313.190104,104.175781 L340.192057,104.175781 L340.192057,112.769531 L323.346354,112.769531 L323.346354,136.646484 L338.28776,136.646484 L338.28776,145.240234 L323.346354,145.240234 L323.346354,170.972656 L340.192057,170.972656 L340.192057,179.566406 L313.190104,179.566406 L313.190104,104.175781 Z M385.774739,105.396484 L385.774739,114.527344 C383.17056,113.257806 380.989592,112.623047 379.231771,112.623047 C376.822904,112.623047 374.755868,113.217116 373.030599,114.405273 C371.30533,115.59343 369.88119,117.424467 368.758138,119.898438 C367.635085,122.372408 366.805015,125.505515 366.267903,129.297852 C365.730791,133.090188 365.462239,137.574193 365.462239,142.75 C365.462239,161.369885 370.231072,170.679688 379.76888,170.679688 C381.429044,170.679688 383.430978,170.158859 385.774739,169.117188 L385.774739,178.443359 C383.333321,179.810554 380.598973,180.494141 377.571614,180.494141 C362.304611,180.494141 354.671224,168.026817 354.671224,143.091797 C354.671224,129.615167 356.534812,119.589226 360.262044,113.013672 C363.989276,106.438118 369.693972,103.150391 377.376302,103.150391 C380.208347,103.150391 383.007798,103.899081 385.774739,105.396484 Z M400.986328,104.175781 L411.142578,104.175781 L411.142578,179.566406 L400.986328,179.566406 L400.986328,104.175781 Z M429.430338,104.175781 L441.930338,104.175781 C445.738951,104.175781 448.945299,104.598954 451.549479,105.445312 C453.958345,106.259119 456.106761,107.707672 457.994791,109.791016 C460.826836,112.916031 462.845045,116.985001 464.049479,121.998047 C465.253912,126.848332 465.856119,133.798132 465.856119,142.847656 C465.856119,151.148479 465.188808,157.919245 463.854166,163.160156 C462.552076,168.173202 460.40366,171.998034 457.408854,174.634766 C453.73045,177.922542 447.138719,179.566406 437.633463,179.566406 L429.430338,179.566406 L429.430338,104.175781 Z M439.586588,170.679688 C445.771515,170.679688 449.905588,168.807961 451.988932,165.064453 C454.13738,161.320945 455.211588,154.045627 455.211588,143.238281 C455.211588,131.617129 454.186208,123.625673 452.135416,119.263672 C450.084625,114.901671 446.324896,112.720703 440.856119,112.720703 L439.586588,112.720703 L439.586588,170.679688 Z M482.630208,104.175781 L509.632161,104.175781 L509.632161,112.769531 L492.786458,112.769531 L492.786458,136.646484 L507.727864,136.646484 L507.727864,145.240234 L492.786458,145.240234 L492.786458,170.972656 L509.632161,170.972656 L509.632161,179.566406 L482.630208,179.566406 L482.630208,104.175781 Z M520.498046,104.175781 L530.361327,104.175781 L535.585937,118.775391 C537.636728,124.537138 538.857419,128.752591 539.248046,131.421875 C539.606121,129.76171 540.00488,128.150398 540.444335,126.587891 C540.88379,125.025383 541.347653,123.462898 541.835937,121.900391 L542.51953,119.703125 L547.353515,104.175781 L557.607421,104.175781 L543.642577,141.285156 L557.607421,179.566406 L547.353515,179.566406 L542.373046,165.210938 C541.363926,162.34634 540.550132,159.774751 539.93164,157.496094 C539.313147,155.217437 538.873698,153.199228 538.61328,151.441406 C538.352862,153.622407 537.913414,155.705719 537.294921,157.691406 L535.585937,163.0625 L534.70703,165.894531 L530.361327,179.566406 L519.61914,179.566406 L533.876952,141.285156 L520.498046,104.175781 Z" id="Save-on-Recidex" fill="#454853"></path>
                <g id="Group-Copy-8">
                    <rect id="Mask" x="0" y="0" width="228.571429" height="228.571429"></rect>
                    <g id="Group-Copy-2" transform="translate(98.022258, 135.852216) rotate(45.000000) translate(-98.022258, -135.852216) translate(55.522258, 52.352216)" fill="#5A4753" fill-rule="nonzero">
                        <path d="M33.5196232,0.0467817896 C30.3598116,0.0467817896 27.7952904,2.60879121 27.7952904,5.76609105 L27.7952904,82.010989 C27.7952904,85.1758242 30.3598116,87.7378336 33.5196232,87.7378336 C36.6769231,87.7378336 39.243956,85.1733124 39.243956,82.010989 L39.243956,5.76609105 C39.243956,2.60879121 36.6769231,0.0467817896 33.5196232,0.0467817896 Z" id="Shape"></path>
                        <path d="M51.4788069,0.0467817896 C48.3139717,0.0467817896 45.7519623,2.60879121 45.7519623,5.76609105 L45.7519623,82.010989 C45.7519623,85.1758242 48.3164835,87.7378336 51.4788069,87.7378336 C54.6361068,87.7378336 57.1981162,85.1733124 57.1981162,82.010989 L57.1981162,5.76609105 C57.2006279,2.60879121 54.6361068,0.0467817896 51.4788069,0.0467817896 Z" id="Shape"></path>
                        <path d="M61.8046944,166.06562 L61.8046944,136.006593 C62.5506912,128.488854 63.6835011,127.629827 68.2750234,124.120879 C70.6109729,122.335008 73.5120714,120.117111 77.0185075,116.565463 C87.5478626,105.905495 84.7095584,87.0470958 84.3830278,85.1632653 L74.1400148,5.04270016 C73.7406428,1.90549451 70.8068912,-0.355102041 67.7375038,0.0945054945 C64.6002985,0.493877551 62.3849141,3.35981162 62.7842862,6.49199372 L73.0574404,86.8461538 C73.7130133,90.7067504 74.3484921,102.971743 68.8703137,108.520251 C65.9315385,111.504239 63.4800475,113.372998 61.3224339,115.023234 C55.2992007,119.622292 51.5415873,123.058399 50.3811478,135.18022 C50.3736109,135.258819 50.3661998,145.54455 50.3589144,166.037411 L34.6373506,166.048431 L34.6373506,135.73281 C33.456817,123.058399 29.6966918,119.622292 23.6709468,115.023234 C21.5108215,113.372998 19.0643539,111.504239 16.123067,108.520251 C10.6649828,102.994349 11.2527379,90.9905808 11.9685933,86.6100471 L22.2065828,6.49199372 C22.6109783,3.35981162 20.3930822,0.493877551 17.2508533,0.0945054945 C14.1638835,-0.355102041 11.2452025,1.90549451 10.8483423,5.04270016 L0.643005937,84.9372057 C0.286334079,87.0496075 -2.5569937,105.908006 7.97236146,116.567975 C11.4787975,120.119623 14.3874314,122.342543 16.7233809,124.123391 C21.3098796,127.632339 22.447713,128.491366 23.1886863,136.009105 L23.1886863,166.068132 L61.8046944,166.06562 Z" id="Shape"></path>
                    </g>
                </g>
            </g>
        </g>
    </g>
</svg>