<?xml version="1.0" encoding="UTF-8"?>
<svg width="229px" height="229px" viewBox="0 0 229 229" version="1.1" xmlns="http://www.w3.org/2000/svg" xmlns:xlink="http://www.w3.org/1999/xlink">
    <!-- Generator: Sketch 49.3 (51167) - http://www.bohemiancoding.com/sketch -->
    <title>Group Copy 6</title>
    <desc>Created with Sketch.</desc>
    <defs>
        <rect id="path-1" x="0" y="0" width="228.571429" height="228.571429"></rect>
        <rect id="path-3" x="0" y="0" width="179" height="183"></rect>
    </defs>
    <g id="visual-2" stroke="none" stroke-width="1" fill="none" fill-rule="evenodd">
        <g id="Group-Copy-6">
            <mask id="mask-2" fill="white">
                <use xlink:href="#path-1"></use>
            </mask>
            <g id="Mask"></g>
            <g id="Group-Copy-2" mask="url(#mask-2)" fill="#5A4753" fill-rule="nonzero">
                <g transform="translate(114.285714, 114.588760) rotate(45.000000) translate(-114.285714, -114.588760) translate(-0.214286, 0.088760)" id="Shape">
                    <path d="M105.519623,59.0467818 C102.359812,59.0467818 99.7952904,61.6087912 99.7952904,64.7660911 L99.7952904,141.010989 C99.7952904,144.175824 102.359812,146.737834 105.519623,146.737834 C108.676923,146.737834 111.243956,144.173312 111.243956,141.010989 L111.243956,64.7660911 C111.243956,61.6087912 108.676923,59.0467818 105.519623,59.0467818 Z"></path>
                    <path d="M123.478807,59.0467818 C120.313972,59.0467818 117.751962,61.6087912 117.751962,64.7660911 L117.751962,141.010989 C117.751962,144.175824 120.316484,146.737834 123.478807,146.737834 C126.636107,146.737834 129.198116,144.173312 129.198116,141.010989 L129.198116,64.7660911 C129.200628,61.6087912 126.636107,59.0467818 123.478807,59.0467818 Z"></path>
                    <path d="M114.49669,0.627943485 C51.7098843,0.627943485 0.627943485,51.7098901 0.627943485,114.496703 C0.627943485,177.283516 51.7098843,228.365463 114.49669,228.365463 C177.283496,228.365463 228.367949,177.283516 228.367949,114.496703 C228.367949,51.7098901 177.283496,0.627943485 114.49669,0.627943485 Z M133.804694,215.06562 L133.804694,195.006593 C134.550691,187.488854 135.683501,186.629827 140.275023,183.120879 C142.610973,181.335008 145.512071,179.117111 149.018507,175.565463 C159.547863,164.905495 156.709558,146.047096 156.383028,144.163265 L146.140015,64.0427002 C145.740643,60.9054945 142.806891,58.644898 139.737504,59.0945055 C136.600299,59.4938776 134.384914,62.3598116 134.784286,65.4919937 L145.05744,145.846154 C145.713013,149.70675 146.348492,161.971743 140.870314,167.520251 C137.931539,170.504239 135.480047,172.372998 133.322434,174.023234 C127.299201,178.622292 123.541587,182.058399 122.381148,194.18022 C122.369426,194.302459 122.361891,201.771638 122.358542,216.587755 C119.758856,216.786185 117.1441,216.921821 114.494179,216.921821 C111.849281,216.921821 109.232013,216.786185 106.637351,216.587755 L106.637351,194.73281 C105.456817,182.058399 101.696692,178.622292 95.6709468,174.023234 C93.5108215,172.372998 91.0643539,170.504239 88.123067,167.520251 C82.6649828,161.994349 83.2527379,149.990581 83.9685933,145.610047 L94.2065828,65.4919937 C94.6109783,62.3598116 92.3930822,59.4938776 89.2508533,59.0945055 C86.1638835,58.644898 83.2452025,60.9054945 82.8483423,64.0427002 L72.6430059,143.937206 C72.2863341,146.049608 69.4430063,164.908006 79.9723615,175.567975 C83.4787975,179.119623 86.3874314,181.342543 88.7233809,183.123391 C93.3098796,186.632339 94.447713,187.491366 95.1886863,195.009105 L95.1886863,215.068132 C47.9171061,206.010675 12.074096,164.370487 12.074096,114.496703 C12.074096,58.021978 58.0219715,12.0740973 114.49669,12.0740973 C170.973921,12.0740973 216.919285,58.0194662 216.919285,114.496703 C216.919285,164.370487 181.078786,206.010675 133.804694,215.06562 Z"></path>
                </g>
            </g>
            <circle id="Oval" fill="#E89E84" mask="url(#mask-2)" cx="179" cy="50" r="50"></circle>
            <g id="Group-Copy-2" mask="url(#mask-2)">
                <g transform="translate(0.000000, 47.000000)">
                    <mask id="mask-4" fill="white">
                        <use xlink:href="#path-3"></use>
                    </mask>
                    <g id="Mask" stroke="none" fill="none"></g>
                    <g id="Group-Copy-2" stroke="none" stroke-width="1" fill="none" fill-rule="evenodd" mask="url(#mask-4)">
                        <g transform="translate(114.285714, 67.588760) rotate(45.000000) translate(-114.285714, -67.588760) translate(-0.214286, -46.911240)" fill="#5A4753" fill-rule="nonzero" id="Shape">
                            <path d="M105.519623,59.0467818 C102.359812,59.0467818 99.7952904,61.6087912 99.7952904,64.7660911 L99.7952904,141.010989 C99.7952904,144.175824 102.359812,146.737834 105.519623,146.737834 C108.676923,146.737834 111.243956,144.173312 111.243956,141.010989 L111.243956,64.7660911 C111.243956,61.6087912 108.676923,59.0467818 105.519623,59.0467818 Z"></path>
                            <path d="M123.478807,59.0467818 C120.313972,59.0467818 117.751962,61.6087912 117.751962,64.7660911 L117.751962,141.010989 C117.751962,144.175824 120.316484,146.737834 123.478807,146.737834 C126.636107,146.737834 129.198116,144.173312 129.198116,141.010989 L129.198116,64.7660911 C129.200628,61.6087912 126.636107,59.0467818 123.478807,59.0467818 Z"></path>
                            <path d="M114.49669,0.627943485 C51.7098843,0.627943485 0.627943485,51.7098901 0.627943485,114.496703 C0.627943485,177.283516 51.7098843,228.365463 114.49669,228.365463 C177.283496,228.365463 228.367949,177.283516 228.367949,114.496703 C228.367949,51.7098901 177.283496,0.627943485 114.49669,0.627943485 Z M133.804694,215.06562 L133.804694,195.006593 C134.550691,187.488854 135.683501,186.629827 140.275023,183.120879 C142.610973,181.335008 145.512071,179.117111 149.018507,175.565463 C159.547863,164.905495 156.709558,146.047096 156.383028,144.163265 L146.140015,64.0427002 C145.740643,60.9054945 142.806891,58.644898 139.737504,59.0945055 C136.600299,59.4938776 134.384914,62.3598116 134.784286,65.4919937 L145.05744,145.846154 C145.713013,149.70675 146.348492,161.971743 140.870314,167.520251 C137.931539,170.504239 135.480047,172.372998 133.322434,174.023234 C127.299201,178.622292 123.541587,182.058399 122.381148,194.18022 C122.369426,194.302459 122.361891,201.771638 122.358542,216.587755 C119.758856,216.786185 117.1441,216.921821 114.494179,216.921821 C111.849281,216.921821 109.232013,216.786185 106.637351,216.587755 L106.637351,194.73281 C105.456817,182.058399 101.696692,178.622292 95.6709468,174.023234 C93.5108215,172.372998 91.0643539,170.504239 88.123067,167.520251 C82.6649828,161.994349 83.2527379,149.990581 83.9685933,145.610047 L94.2065828,65.4919937 C94.6109783,62.3598116 92.3930822,59.4938776 89.2508533,59.0945055 C86.1638835,58.644898 83.2452025,60.9054945 82.8483423,64.0427002 L72.6430059,143.937206 C72.2863341,146.049608 69.4430063,164.908006 79.9723615,175.567975 C83.4787975,179.119623 86.3874314,181.342543 88.7233809,183.123391 C93.3098796,186.632339 94.447713,187.491366 95.1886863,195.009105 L95.1886863,215.068132 C47.9171061,206.010675 12.074096,164.370487 12.074096,114.496703 C12.074096,58.021978 58.0219715,12.0740973 114.49669,12.0740973 C170.973921,12.0740973 216.919285,58.0194662 216.919285,114.496703 C216.919285,164.370487 181.078786,206.010675 133.804694,215.06562 Z"></path>
                        </g>
                    </g>
                </g>
            </g>
            <path d="M163.685547,63.6328125 L145,63.6328125 L152.417969,53.7363281 C153.261723,52.6113225 153.9707,51.6064497 154.544922,50.7216797 C155.119143,49.8369096 155.570311,49.0546909 155.898438,48.375 C156.542972,47.0976499 156.865234,45.785163 156.865234,44.4375 C156.865234,43.6992151 156.712892,43.1132834 156.408203,42.6796875 C156.103514,42.2460916 155.687503,42.0292969 155.160156,42.0292969 C153.988275,42.0292969 153.402344,43.1308484 153.402344,45.3339844 C153.402344,45.4511725 153.405273,45.5917961 153.411133,45.7558594 C153.416992,45.9199227 153.425781,46.1132801 153.4375,46.3359375 L146.318359,46.3359375 L146.283203,45.3515625 C146.283203,42.6210801 147.126945,40.3828212 148.814453,38.6367188 C150.51368,36.8788975 152.687487,36 155.335938,36 C157.890638,36 159.976554,36.8320229 161.59375,38.4960938 C163.222664,40.1250081 164.037109,42.25194 164.037109,44.8769531 C164.037109,46.9863387 163.480474,49.0370994 162.367188,51.0292969 C161.804685,52.0253956 161.0752,53.0712836 160.178711,54.1669922 C159.282222,55.2627008 158.195319,56.4140565 156.917969,57.6210938 C158.019537,57.5390621 159.129877,57.4804689 160.249023,57.4453125 C161.36817,57.4101561 162.513666,57.3925781 163.685547,57.3925781 L163.685547,63.6328125 Z M184.629962,49.5 C187.430757,50.7187561 188.831134,52.8515473 188.831134,55.8984375 C188.831134,58.2656368 187.952236,60.2285078 186.194415,61.7871094 C184.436594,63.3339921 182.227632,64.1074219 179.567462,64.1074219 C176.989324,64.1074219 174.803799,63.3164142 173.010821,61.734375 C171.217844,60.140617 170.321368,58.2011833 170.321368,55.9160156 C170.321368,52.8691254 171.862368,50.7304749 174.944415,49.5 C172.225651,48.5742141 170.86629,46.6816549 170.86629,43.8222656 C170.86629,41.5605356 171.674876,39.6914136 173.292071,38.2148438 C174.920986,36.7382739 176.977606,36 179.461993,36 C182.016693,36 184.126047,36.7265552 185.790118,38.1796875 C187.489345,39.6328198 188.338946,41.4433485 188.338946,43.6113281 C188.338946,45.0175852 188.045981,46.1894484 187.46004,47.1269531 C186.8741,48.0644578 185.93075,48.8554655 184.629962,49.5 Z M181.360431,55.1074219 C181.360431,53.2792877 180.76278,52.3652344 179.567462,52.3652344 C179.309648,52.3652344 179.072346,52.4355462 178.855548,52.5761719 C178.63875,52.7167976 178.451252,52.910155 178.293048,53.15625 C178.134844,53.402345 178.011798,53.6982405 177.923907,54.0439453 C177.836016,54.3896502 177.792071,54.7675761 177.792071,55.1777344 C177.792071,55.9863322 177.959062,56.6337866 178.293048,57.1201172 C178.627034,57.6064477 179.063553,57.8496094 179.602618,57.8496094 C179.860432,57.8496094 180.097734,57.7822272 180.314532,57.6474609 C180.53133,57.5126946 180.715899,57.3251965 180.868243,57.0849609 C181.020588,56.8447254 181.140704,56.5576189 181.228595,56.2236328 C181.316486,55.8896468 181.360431,55.5175802 181.360431,55.1074219 Z M181.131915,44.2089844 C181.131915,43.4941371 180.991291,42.919924 180.71004,42.4863281 C180.428789,42.0527322 180.053792,41.8359375 179.58504,41.8359375 C179.128007,41.8359375 178.764729,42.0410136 178.495196,42.4511719 C178.225664,42.8613302 178.090899,43.4062466 178.090899,44.0859375 C178.090899,45.7382895 178.60066,46.5644531 179.620196,46.5644531 C180.628014,46.5644531 181.131915,45.7793047 181.131915,44.2089844 Z M209.529455,49.5 C212.33025,50.7187561 213.730627,52.8515473 213.730627,55.8984375 C213.730627,58.2656368 212.85173,60.2285078 211.093908,61.7871094 C209.336087,63.3339921 207.127125,64.1074219 204.466955,64.1074219 C201.888817,64.1074219 199.703292,63.3164142 197.910315,61.734375 C196.117337,60.140617 195.220861,58.2011833 195.220861,55.9160156 C195.220861,52.8691254 196.761862,50.7304749 199.843908,49.5 C197.125145,48.5742141 195.765783,46.6816549 195.765783,43.8222656 C195.765783,41.5605356 196.574369,39.6914136 198.191565,38.2148438 C199.820479,36.7382739 201.877099,36 204.361486,36 C206.916187,36 209.025541,36.7265552 210.689611,38.1796875 C212.388839,39.6328198 213.23844,41.4433485 213.23844,43.6113281 C213.23844,45.0175852 212.945474,46.1894484 212.359533,47.1269531 C211.773593,48.0644578 210.830243,48.8554655 209.529455,49.5 Z M206.259924,55.1074219 C206.259924,53.2792877 205.662274,52.3652344 204.466955,52.3652344 C204.209141,52.3652344 203.971839,52.4355462 203.755041,52.5761719 C203.538243,52.7167976 203.350745,52.910155 203.192541,53.15625 C203.034337,53.402345 202.911292,53.6982405 202.8234,54.0439453 C202.735509,54.3896502 202.691565,54.7675761 202.691565,55.1777344 C202.691565,55.9863322 202.858555,56.6337866 203.192541,57.1201172 C203.526527,57.6064477 203.963046,57.8496094 204.502111,57.8496094 C204.759925,57.8496094 204.997228,57.7822272 205.214025,57.6474609 C205.430823,57.5126946 205.615392,57.3251965 205.767736,57.0849609 C205.920081,56.8447254 206.040197,56.5576189 206.128088,56.2236328 C206.215979,55.8896468 206.259924,55.5175802 206.259924,55.1074219 Z M206.031408,44.2089844 C206.031408,43.4941371 205.890785,42.919924 205.609533,42.4863281 C205.328282,42.0527322 204.953286,41.8359375 204.484533,41.8359375 C204.0275,41.8359375 203.664222,42.0410136 203.39469,42.4511719 C203.125157,42.8613302 202.990393,43.4062466 202.990393,44.0859375 C202.990393,45.7382895 203.500153,46.5644531 204.51969,46.5644531 C205.527507,46.5644531 206.031408,45.7793047 206.031408,44.2089844 Z" id="288" fill="#FFFFFF" mask="url(#mask-2)"></path>
        </g>
    </g>
</svg>