<?xml version="1.0" encoding="UTF-8"?>
<svg width="264px" height="79px" viewBox="0 0 264 79" version="1.1" xmlns="http://www.w3.org/2000/svg" xmlns:xlink="http://www.w3.org/1999/xlink">
    <!-- Generator: Sketch 49.3 (51167) - http://www.bohemiancoding.com/sketch -->
    <title>Group 9</title>
    <desc>Created with Sketch.</desc>
    <defs></defs>
    <g id="visual" stroke="none" stroke-width="1" fill="none" fill-rule="evenodd">
        <g id="Group-9" fill="#5A4753">
            <g id="Group-6">
                <g id="Path-1-+-Oval-1-Copy-2" transform="translate(20.680047, 0.000000)">
                    <path d="M22.2397563,44.4795125 C9.95707804,44.4795125 0,34.5224345 0,22.2397563 C0,9.95707804 9.95707804,0 22.2397563,0 C34.5224345,0 44.4795125,9.95707804 44.4795125,22.2397563 C44.4795125,34.5224345 34.5224345,44.4795125 22.2397563,44.4795125 Z M22.2397563,43.7772044 C34.1345604,43.7772044 43.7772044,34.1345604 43.7772044,22.2397563 C43.7772044,10.3449521 34.1345604,0.702308092 22.2397563,0.702308092 C10.3449521,0.702308092 0.702308092,10.3449521 0.702308092,22.2397563 C0.702308092,34.1345604 10.3449521,43.7772044 22.2397563,43.7772044 Z M22.2397563,43.0748963 C10.7328261,43.0748963 1.40461618,33.7466864 1.40461618,22.2397563 C1.40461618,10.7328261 10.7328261,1.40461618 22.2397563,1.40461618 C33.7466864,1.40461618 43.0748963,10.7328261 43.0748963,22.2397563 C43.0748963,33.7466864 33.7466864,43.0748963 22.2397563,43.0748963 Z" id="Combined-Shape"></path>
                </g>
                <path d="M10.019206,42.0488664 C9.96412837,40.9452889 10.8121393,40.0506626 11.9269396,40.0506626 L21.5169907,40.0506626 C22.6256805,40.0506626 23.4802053,40.9372063 23.4247243,42.0488664 L21.5808837,78.9934606 C21.5808837,78.9934606 18.4197185,78.9934606 16.7219651,77.0463207 C15.1804395,78.9934606 11.8630466,78.9934606 11.8630466,78.9934606 L10.019206,42.0488664 Z M16.7219651,47.8392222 C17.7953678,47.8392222 18.6655326,46.967458 18.6655326,45.8920823 C18.6655326,44.8167067 17.7953678,43.9449424 16.7219651,43.9449424 C15.6485625,43.9449424 14.7783977,44.8167067 14.7783977,45.8920823 C14.7783977,46.967458 15.6485625,47.8392222 16.7219651,47.8392222 Z" id="Combined-Shape-Copy-2" transform="translate(16.721963, 59.522062) rotate(215.000000) translate(-16.721963, -59.522062) "></path>
            </g>
            <path d="M85.5595703,5.65 L97.2595703,5.65 C101.50957,5.65 104.15957,7.05 105.75957,8.55 C107.15957,9.9 108.65957,12.3 108.65957,16 C108.65957,18.1 108.20957,20.7 106.05957,22.8 C104.90957,23.9 103.25957,24.9 101.40957,25.35 L111.65957,39 L102.25957,39 L93.2595703,25.85 L93.2595703,39 L85.5595703,39 L85.5595703,5.65 Z M93.2595703,11.65 L93.2595703,20.8 L95.0095703,20.8 C96.4095703,20.8 98.3095703,20.65 99.6095703,19.35 C100.15957,18.8 100.85957,17.75 100.85957,16.1 C100.85957,14.2 99.9595703,13.2 99.3095703,12.7 C98.0595703,11.75 96.0595703,11.65 95.0595703,11.65 L93.2595703,11.65 Z M121.50957,24.8 L131.25957,24.8 C131.20957,24.6 130.85957,23.2 129.80957,22.2 C129.00957,21.45 127.85957,20.95 126.40957,20.95 C124.55957,20.95 123.45957,21.7 122.75957,22.4 C122.20957,23 121.70957,23.8 121.50957,24.8 Z M137.90957,28.35 L137.90957,29.1 L121.25957,29.1 C121.25957,30.3 121.70957,31.9 122.60957,32.9 C123.70957,34.1 125.20957,34.3 126.30957,34.3 C127.35957,34.3 128.45957,34.1 129.20957,33.65 C129.30957,33.6 130.15957,33.05 130.75957,31.8 L137.55957,32.5 C136.55957,35.65 134.55957,37.3 133.25957,38.1 C131.10957,39.4 128.70957,39.75 126.20957,39.75 C122.85957,39.75 119.90957,39.15 117.30957,36.55 C115.35957,34.6 113.95957,31.65 113.95957,27.95 C113.95957,24.75 115.10957,21.45 117.35957,19.15 C120.05957,16.45 123.40957,15.95 125.90957,15.95 C128.40957,15.95 132.00957,16.4 134.75957,19.3 C137.40957,22.1 137.90957,25.6 137.90957,28.35 Z M159.15957,17.2 L159.15957,23.75 C157.40957,22.3 155.60957,22.05 154.45957,22.05 C152.20957,22.05 150.85957,23.15 150.35957,23.65 C149.40957,24.6 148.70957,26.05 148.70957,27.85 C148.70957,29.5 149.30957,30.9 150.20957,31.85 C151.30957,33.05 152.95957,33.65 154.55957,33.65 C155.80957,33.65 157.50957,33.3 159.15957,31.9 L159.15957,38.4 C157.25957,39.45 155.45957,39.75 153.45957,39.75 C149.70957,39.75 146.85957,38.4 144.80957,36.4 C143.10957,34.75 141.30957,31.95 141.30957,27.9 C141.30957,24.1 142.90957,21.1 145.00957,19.1 C147.50957,16.75 150.45957,15.95 153.50957,15.95 C155.45957,15.95 157.25957,16.3 159.15957,17.2 Z M164.45957,16.7 L171.65957,16.7 L171.65957,39 L164.45957,39 L164.45957,16.7 Z M163.85957,7.2 C163.85957,4.85 165.70957,3 168.05957,3 C170.40957,3 172.25957,4.85 172.25957,7.2 C172.25957,9.55 170.40957,11.4 168.05957,11.4 C165.70957,11.4 163.85957,9.55 163.85957,7.2 Z M202.05957,2.55 L202.05957,39 L194.85957,39 L194.85957,36.3 C193.75957,37.9 191.75957,39.75 187.80957,39.75 C184.50957,39.75 182.10957,38.7 180.15957,36.7 C177.85957,34.4 176.65957,31.2 176.65957,27.75 C176.65957,24.05 178.00957,21 180.15957,18.95 C182.10957,17.1 184.85957,15.95 187.90957,15.95 C190.35957,15.95 193.05957,16.75 194.85957,19.2 L194.85957,2.55 L202.05957,2.55 Z M189.65957,22.15 C188.20957,22.15 186.95957,22.55 185.80957,23.65 C184.75957,24.65 184.05957,26.1 184.05957,27.9 C184.05957,29.55 184.75957,31 185.80957,32 C186.90957,33.05 188.30957,33.55 189.55957,33.55 C190.90957,33.55 192.50957,33 193.65957,31.9 C194.50957,31.1 195.30957,29.75 195.30957,27.9 C195.30957,26 194.55957,24.7 193.70957,23.8 C192.55957,22.6 191.20957,22.15 189.65957,22.15 Z M214.30957,24.8 L224.05957,24.8 C224.00957,24.6 223.65957,23.2 222.60957,22.2 C221.80957,21.45 220.65957,20.95 219.20957,20.95 C217.35957,20.95 216.25957,21.7 215.55957,22.4 C215.00957,23 214.50957,23.8 214.30957,24.8 Z M230.70957,28.35 L230.70957,29.1 L214.05957,29.1 C214.05957,30.3 214.50957,31.9 215.40957,32.9 C216.50957,34.1 218.00957,34.3 219.10957,34.3 C220.15957,34.3 221.25957,34.1 222.00957,33.65 C222.10957,33.6 222.95957,33.05 223.55957,31.8 L230.35957,32.5 C229.35957,35.65 227.35957,37.3 226.05957,38.1 C223.90957,39.4 221.50957,39.75 219.00957,39.75 C215.65957,39.75 212.70957,39.15 210.10957,36.55 C208.15957,34.6 206.75957,31.65 206.75957,27.95 C206.75957,24.75 207.90957,21.45 210.15957,19.15 C212.85957,16.45 216.20957,15.95 218.70957,15.95 C221.20957,15.95 224.80957,16.4 227.55957,19.3 C230.20957,22.1 230.70957,25.6 230.70957,28.35 Z M232.50957,39 L243.40957,26.85 L234.55957,16.7 L243.75957,16.7 L247.90957,21.85 L252.05957,16.7 L261.25957,16.7 L252.40957,26.85 L263.30957,39 L254.00957,39 L247.90957,31.8 L241.80957,39 L232.50957,39 Z" id="Recidex"></path>
        </g>
    </g>
</svg>