<?xml version="1.0" encoding="UTF-8"?>
<svg width="140px" height="40px" viewBox="0 0 140 40" version="1.1" xmlns="http://www.w3.org/2000/svg" xmlns:xlink="http://www.w3.org/1999/xlink">
    <!-- Generator: Sketch 49.3 (51167) - http://www.bohemiancoding.com/sketch -->
    <title>Group 5</title>
    <desc>Created with Sketch.</desc>
    <defs>
        <rect id="path-1" x="0" y="0" width="40" height="40"></rect>
    </defs>
    <g id="visual-2" stroke="none" stroke-width="1" fill="none" fill-rule="evenodd">
        <g id="Group-5">
            <g id="Group-Copy-3">
                <mask id="mask-2" fill="white">
                    <use xlink:href="#path-1"></use>
                </mask>
                <g id="Mask"></g>
                <g id="Group-Copy-2" mask="url(#mask-2)" fill="#5A4753" fill-rule="nonzero">
                    <g transform="translate(20.000000, 20.000000) rotate(45.000000) translate(-20.000000, -20.000000) " id="Shape">
                        <path d="M18.4659341,10.3331868 C17.912967,10.3331868 17.4641758,10.7815385 17.4641758,11.3340659 L17.4641758,24.6769231 C17.4641758,25.2307692 17.912967,25.6791209 18.4659341,25.6791209 C19.0184615,25.6791209 19.4676923,25.2303297 19.4676923,24.6769231 L19.4676923,11.3340659 C19.4676923,10.7815385 19.0184615,10.3331868 18.4659341,10.3331868 Z"></path>
                        <path d="M21.6087912,10.3331868 C21.0549451,10.3331868 20.6065934,10.7815385 20.6065934,11.3340659 L20.6065934,24.6769231 C20.6065934,25.2307692 21.0553846,25.6791209 21.6087912,25.6791209 C22.1613187,25.6791209 22.6096703,25.2303297 22.6096703,24.6769231 L22.6096703,11.3340659 C22.6101099,10.7815385 22.1613187,10.3331868 21.6087912,10.3331868 Z"></path>
                        <path d="M20.0369231,0.10989011 C9.04923077,0.10989011 0.10989011,9.04923077 0.10989011,20.0369231 C0.10989011,31.0246154 9.04923077,39.963956 20.0369231,39.963956 C31.0246154,39.963956 39.9643956,31.0246154 39.9643956,20.0369231 C39.9643956,9.04923077 31.0246154,0.10989011 20.0369231,0.10989011 Z M23.4158242,37.6364835 L23.4158242,34.1261538 C23.5463736,32.8105495 23.7446154,32.6602198 24.5481319,32.0461538 C24.9569231,31.7336264 25.4646154,31.3454945 26.0782418,30.723956 C27.9208791,28.8584615 27.4241758,25.5582418 27.367033,25.2285714 L25.5745055,11.2074725 C25.5046154,10.6584615 24.9912088,10.2628571 24.4540659,10.3415385 C23.9050549,10.4114286 23.5173626,10.912967 23.5872527,11.4610989 L25.3850549,25.5230769 C25.4997802,26.1986813 25.610989,28.3450549 24.6523077,29.316044 C24.138022,29.8382418 23.709011,30.1652747 23.3314286,30.4540659 C22.2773626,31.2589011 21.6197802,31.8602198 21.4167033,33.9815385 C21.4136264,34.0136264 21.4127473,34.0457143 21.4127473,34.0782418 L21.4127473,37.9028571 C20.9578022,37.9375824 20.5002198,37.9613187 20.0364835,37.9613187 C19.5736264,37.9613187 19.1156044,37.9375824 18.6615385,37.9028571 L18.6615385,34.0782418 C18.6615385,34.0457143 18.6597802,34.0140659 18.6567033,33.9828571 C18.4549451,31.8602198 17.7969231,31.2589011 16.7424176,30.4540659 C16.3643956,30.1652747 15.9362637,29.8382418 15.4215385,29.316044 C14.4663736,28.349011 14.5692308,26.2483516 14.6945055,25.4817582 L16.4861538,11.4610989 C16.5569231,10.912967 16.1687912,10.4114286 15.6189011,10.3415385 C15.0786813,10.2628571 14.5679121,10.6584615 14.4984615,11.2074725 L12.7125275,25.189011 C12.6501099,25.5586813 12.1525275,28.8589011 13.9951648,30.7243956 C14.6087912,31.3459341 15.1178022,31.7349451 15.5265934,32.0465934 C16.3292308,32.6606593 16.5283516,32.810989 16.658022,34.1265934 L16.658022,37.6369231 C8.38549451,36.0518681 2.11296703,28.7648352 2.11296703,20.0369231 C2.11296703,10.1538462 10.1538462,2.11296703 20.0369231,2.11296703 C29.9204396,2.11296703 37.9608791,10.1534066 37.9608791,20.0369231 C37.9608791,28.7648352 31.6887912,36.0518681 23.4158242,37.6364835 Z"></path>
                    </g>
                </g>
            </g>
            <path d="M51.7431641,9.3828125 L55.7568359,9.3828125 C57.4170005,9.3828125 58.6523397,9.77831636 59.4628906,10.5693359 C60.4882864,11.5947317 61.0009766,13.1620988 61.0009766,15.2714844 C61.0009766,16.8925862 60.7299832,18.1938427 60.1879883,19.175293 C59.6459934,20.1567432 58.8720753,20.7646473 57.8662109,20.9990234 L62.0263672,32 L58.9355469,32 L54.7900391,20.9257812 L54.7900391,32 L51.7431641,32 L51.7431641,9.3828125 Z M54.7900391,19.4023438 C55.9716856,19.4023438 56.8066382,19.128909 57.2949219,18.5820312 C57.7832056,18.0351535 58.0273438,17.1123112 58.0273438,15.8134766 C58.0273438,15.110348 57.9760747,14.5097681 57.8735352,14.0117188 C57.7709956,13.5136694 57.6098644,13.1084 57.3901367,12.7958984 C57.1704091,12.4833969 56.8872088,12.253907 56.5405273,12.1074219 C56.1938459,11.9609368 55.7812524,11.8876953 55.3027344,11.8876953 L54.7900391,11.8876953 L54.7900391,19.4023438 Z M66.3847656,9.3828125 L74.4853516,9.3828125 L74.4853516,11.9609375 L69.4316406,11.9609375 L69.4316406,19.1240234 L73.9140625,19.1240234 L73.9140625,21.7021484 L69.4316406,21.7021484 L69.4316406,29.421875 L74.4853516,29.421875 L74.4853516,32 L66.3847656,32 L66.3847656,9.3828125 Z M88.1601562,9.74902344 L88.1601562,12.4882812 C87.3789023,12.10742 86.724612,11.9169922 86.1972656,11.9169922 C85.4746058,11.9169922 84.8544948,12.0952131 84.3369141,12.4516602 C83.8193333,12.8081073 83.3920915,13.3574182 83.0551758,14.0996094 C82.71826,14.8418006 82.4692391,15.7817326 82.3081055,16.9194336 C82.1469719,18.0571346 82.0664062,19.402336 82.0664062,20.9550781 C82.0664062,26.5410436 83.497056,29.3339844 86.3583984,29.3339844 C86.8564478,29.3339844 87.4570277,29.1777359 88.1601562,28.8652344 L88.1601562,31.6630859 C87.4277307,32.0732442 86.6074264,32.2783203 85.6992188,32.2783203 C81.1191177,32.2783203 78.8291016,28.5381233 78.8291016,21.0576172 C78.8291016,17.0146282 79.388178,14.0068458 80.5063477,12.0341797 C81.6245173,10.0615136 83.335926,9.07519531 85.640625,9.07519531 C86.4902386,9.07519531 87.330074,9.29980244 88.1601562,9.74902344 Z M92.7236328,9.3828125 L95.7705078,9.3828125 L95.7705078,32 L92.7236328,32 L92.7236328,9.3828125 Z M101.256836,9.3828125 L105.006836,9.3828125 C106.14942,9.3828125 107.111324,9.50976436 107.892578,9.76367188 C108.615238,10.0078137 109.259763,10.4423797 109.826172,11.0673828 C110.675785,12.0048875 111.281248,13.2255784 111.642578,14.7294922 C112.003908,16.1845776 112.18457,18.2695177 112.18457,20.984375 C112.18457,23.4746218 111.984377,25.5058515 111.583984,27.078125 C111.193357,28.5820388 110.548833,29.7294882 109.650391,30.5205078 C108.546869,31.5068409 106.56935,32 103.717773,32 L101.256836,32 L101.256836,9.3828125 Z M104.303711,29.3339844 C106.159189,29.3339844 107.399411,28.7724666 108.024414,27.6494141 C108.668949,26.5263616 108.991211,24.3437662 108.991211,21.1015625 C108.991211,17.6152169 108.683597,15.21778 108.068359,13.9091797 C107.453122,12.6005794 106.325204,11.9462891 104.68457,11.9462891 L104.303711,11.9462891 L104.303711,29.3339844 Z M117.216797,9.3828125 L125.317383,9.3828125 L125.317383,11.9609375 L120.263672,11.9609375 L120.263672,19.1240234 L124.746094,19.1240234 L124.746094,21.7021484 L120.263672,21.7021484 L120.263672,29.421875 L125.317383,29.421875 L125.317383,32 L117.216797,32 L117.216797,9.3828125 Z M128.577148,9.3828125 L131.536133,9.3828125 L133.103516,13.7626953 C133.718753,15.4912196 134.08496,16.7558554 134.202148,17.5566406 C134.309571,17.0585913 134.429199,16.5751977 134.561035,16.1064453 C134.692872,15.637693 134.832031,15.1689477 134.978516,14.7001953 L135.183594,14.0410156 L136.633789,9.3828125 L139.709961,9.3828125 L135.520508,20.515625 L139.709961,32 L136.633789,32 L135.139648,27.6933594 C134.836913,26.8339801 134.592774,26.0625034 134.407227,25.3789062 C134.221679,24.6953091 134.089844,24.0898464 134.011719,23.5625 C133.933593,24.2168001 133.801759,24.8417939 133.616211,25.4375 L133.103516,27.0488281 L132.839844,27.8984375 L131.536133,32 L128.313477,32 L132.59082,20.515625 L128.577148,9.3828125 Z" id="recidex-copy" fill="#454853"></path>
        </g>
    </g>
</svg>