<?xml version="1.0" encoding="UTF-8"?>
<svg width="266px" height="81px" viewBox="0 0 266 81" version="1.1" xmlns="http://www.w3.org/2000/svg" xmlns:xlink="http://www.w3.org/1999/xlink">
    <!-- Generator: Sketch 49.3 (51167) - http://www.bohemiancoding.com/sketch -->
    <title>Group 9</title>
    <desc>Created with Sketch.</desc>
    <defs></defs>
    <g id="visual" stroke="none" stroke-width="1" fill="none" fill-rule="evenodd">
        <g id="Group-9" transform="translate(0.000000, 2.000000)" fill="#5A4753">
            <g id="Group-6">
                <g id="Path-1-+-Oval-1-Copy-2" transform="translate(20.680047, 0.000000)">
                    <path d="M22.2397563,44.4795125 C9.95707804,44.4795125 0,34.5224345 0,22.2397563 C0,9.95707804 9.95707804,0 22.2397563,0 C34.5224345,0 44.4795125,9.95707804 44.4795125,22.2397563 C44.4795125,34.5224345 34.5224345,44.4795125 22.2397563,44.4795125 Z M22.2397563,43.7772044 C34.1345604,43.7772044 43.7772044,34.1345604 43.7772044,22.2397563 C43.7772044,10.3449521 34.1345604,0.702308092 22.2397563,0.702308092 C10.3449521,0.702308092 0.702308092,10.3449521 0.702308092,22.2397563 C0.702308092,34.1345604 10.3449521,43.7772044 22.2397563,43.7772044 Z M22.2397563,43.0748963 C10.7328261,43.0748963 1.40461618,33.7466864 1.40461618,22.2397563 C1.40461618,10.7328261 10.7328261,1.40461618 22.2397563,1.40461618 C33.7466864,1.40461618 43.0748963,10.7328261 43.0748963,22.2397563 C43.0748963,33.7466864 33.7466864,43.0748963 22.2397563,43.0748963 Z" id="Combined-Shape"></path>
                </g>
                <path d="M10.019206,42.0488664 C9.96412837,40.9452889 10.8121393,40.0506626 11.9269396,40.0506626 L21.5169907,40.0506626 C22.6256805,40.0506626 23.4802053,40.9372063 23.4247243,42.0488664 L21.5808837,78.9934606 C21.5808837,78.9934606 18.4197185,78.9934606 16.7219651,77.0463207 C15.1804395,78.9934606 11.8630466,78.9934606 11.8630466,78.9934606 L10.019206,42.0488664 Z M16.7219651,47.8392222 C17.7953678,47.8392222 18.6655326,46.967458 18.6655326,45.8920823 C18.6655326,44.8167067 17.7953678,43.9449424 16.7219651,43.9449424 C15.6485625,43.9449424 14.7783977,44.8167067 14.7783977,45.8920823 C14.7783977,46.967458 15.6485625,47.8392222 16.7219651,47.8392222 Z" id="Combined-Shape-Copy-2" transform="translate(16.721963, 59.522062) rotate(215.000000) translate(-16.721963, -59.522062) "></path>
            </g>
            <path d="M81.16,1.98 L87.58,1.98 C90.28,1.98 94.3,2.16 97.3,4.2 C99.64,5.76 101.68,8.82 101.68,13.08 C101.68,19.2 97.66,23.7 91.6,24.12 L104.32,42 L98.92,42 L86.74,24.48 L85.6,24.48 L85.6,42 L81.16,42 L81.16,1.98 Z M85.6,6.18 L85.6,20.52 L88.42,20.52 C93.94,20.52 97.24,17.88 97.24,13.2 C97.24,10.98 96.58,8.76 94.06,7.32 C92.26,6.3 90.22,6.18 88.3,6.18 L85.6,6.18 Z M128.48,33.66 L132.08,35.64 C131.36,37.02 130.28,38.52 129.02,39.66 C126.74,41.7 123.92,42.72 120.74,42.72 C114.74,42.72 108.44,38.94 108.44,29.7 C108.44,22.26 113,16.5 120.5,16.5 C125.36,16.5 128.42,18.9 129.92,21.06 C131.48,23.28 132.38,27.12 132.26,30.42 L112.88,30.42 C112.94,35.58 116.48,38.88 120.8,38.88 C122.84,38.88 124.46,38.28 125.9,37.08 C127.04,36.12 127.94,34.86 128.48,33.66 Z M113.18,26.82 L127.82,26.82 C127.1,22.92 124.16,20.34 120.5,20.34 C116.84,20.34 113.84,23.1 113.18,26.82 Z M159.36,18.9 L159.36,24.06 C157.08,21.18 153.78,20.34 151.56,20.34 C146.94,20.34 142.74,23.58 142.74,29.64 C142.74,35.7 147.06,38.88 151.5,38.88 C154.08,38.88 157.26,37.74 159.54,34.98 L159.54,40.14 C156.84,42.12 153.96,42.72 151.62,42.72 C143.88,42.72 138.3,37.2 138.3,29.7 C138.3,22.08 143.94,16.5 151.62,16.5 C155.58,16.5 158.16,18.06 159.36,18.9 Z M167.14,17.1 L171.46,17.1 L171.46,42 L167.14,42 L167.14,17.1 Z M166.24,7.68 C166.24,6 167.62,4.62 169.3,4.62 C170.98,4.62 172.36,6 172.36,7.68 C172.36,9.36 170.98,10.74 169.3,10.74 C167.62,10.74 166.24,9.36 166.24,7.68 Z M199.7,20.64 L199.7,-1.74 L204.02,-1.74 L204.02,42 L199.7,42 L199.7,38.52 C198.26,40.38 195.56,42.72 191.18,42.72 C184.88,42.72 179.06,38.28 179.06,29.52 C179.06,20.94 184.82,16.5 191.18,16.5 C195.98,16.5 198.56,19.14 199.7,20.64 Z M191.66,20.34 C187.4,20.34 183.5,23.46 183.5,29.52 C183.5,34.86 186.5,38.88 191.66,38.88 C196.94,38.88 199.94,34.5 199.94,29.58 C199.94,23.16 195.5,20.34 191.66,20.34 Z M231.66,33.66 L235.26,35.64 C234.54,37.02 233.46,38.52 232.2,39.66 C229.92,41.7 227.1,42.72 223.92,42.72 C217.92,42.72 211.62,38.94 211.62,29.7 C211.62,22.26 216.18,16.5 223.68,16.5 C228.54,16.5 231.6,18.9 233.1,21.06 C234.66,23.28 235.56,27.12 235.44,30.42 L216.06,30.42 C216.12,35.58 219.66,38.88 223.98,38.88 C226.02,38.88 227.64,38.28 229.08,37.08 C230.22,36.12 231.12,34.86 231.66,33.66 Z M216.36,26.82 L231,26.82 C230.28,22.92 227.34,20.34 223.68,20.34 C220.02,20.34 217.02,23.1 216.36,26.82 Z M239.44,42 L250.06,28.68 L241,17.1 L246.28,17.1 L252.7,25.56 L259.24,17.1 L264.52,17.1 L255.4,28.74 L265.72,42 L260.44,42 L252.58,31.86 L244.72,42 L239.44,42 Z" id="Recidex"></path>
        </g>
    </g>
</svg>